<?xml version="1.0" encoding="UTF-8" standalone="no"?>
<svg
   xmlns="http://www.w3.org/2000/svg"
   width="24"
   height="24"
   viewBox="0 0 6.3499999 6.3500002"
   version="1.1">
  <path
     d="M 5.96875,4 A 2.0000882,2.0000882 0 0 0 4.5957031,4.5761719 2.0000882,2.0000882 0 0 0 4.5742188,7.4023438 L 9.2675781,12.15625 4.5917969,16.771484 a 2.0000882,2.0000882 0 0 0 -0.013672,2.826172 2.0000882,2.0000882 0 0 0 2.8261719,0.02344 l 4.6738282,-4.617188 4.691406,4.75 a 2.0000882,2.0000882 0 0 0 2.826172,0.01367 2.0000882,2.0000882 0 0 0 0.02344,-2.826172 l -4.69336,-4.75 4.822266,-4.7656248 A 2.0000882,2.0000882 0 0 0 19.761719,4.5976562 2.0000882,2.0000882 0 0 0 18.308594,4 2.0000882,2.0000882 0 0 0 16.935547,4.5839844 L 12.113281,9.34375 7.4238281,4.5976562 A 2.0000882,2.0000882 0 0 0 5.96875,4 Z"
     transform="scale(0.26458334)" />
</svg>
