<?xml version="1.0" encoding="UTF-8" standalone="no"?>
<svg
   xmlns="http://www.w3.org/2000/svg"
   version="1.1"
   viewBox="0 0 26.458333 26.458334"
   height="100"
   width="100">
  <path
     d="M 3.0509171,0 C 1.3705005,-3.1755905e-8 -2.5404725e-8,1.3705005 0,3.0509171 V 23.405867 c -4.4458277e-7,1.680417 1.3705002,3.052466 3.0509171,3.052466 H 23.405867 c 1.680417,0 3.052469,-1.372049 3.052466,-3.052466 V 3.0509171 C 26.458333,1.3705007 25.086283,1.9053542e-7 23.405867,0 Z m 0,0.81078741 H 23.405867 c 1.242033,1.5e-7 2.24013,0.99809669 2.24013,2.24012969 V 23.405867 c 10e-7,1.242033 -0.998097,2.240129 -2.24013,2.240129 H 3.0509171 c -1.2420334,0 -2.24013001,-0.998095 -2.24012969,-2.240129 V 3.0509171 C 0.81078738,1.808884 1.808884,0.81078738 3.0509171,0.81078741 Z M 13.208755,5.267276 A 0.52915471,0.52915471 0 0 0 12.679599,5.7964324 V 11.434221 L 10.358856,9.0855733 A 0.52915471,0.52915471 0 0 0 9.9743906,8.9274466 0.52915471,0.52915471 0 0 0 9.6111123,9.0798888 0.52915471,0.52915471 0 0 0 9.6069783,9.8296994 l 3.2162787,3.2565856 0.0088,0.0093 a 0.52915471,0.52915471 0 0 0 0.02274,0.0217 0.52915471,0.52915471 0 0 0 0.02377,0.02015 0.52915471,0.52915471 0 0 0 0.454227,0.09974 0.52915471,0.52915471 0 0 0 0.0031,-5.17e-4 0.52915471,0.52915471 0 0 0 0.02584,-0.0072 0.52915471,0.52915471 0 0 0 0.0021,-5.16e-4 0.52915471,0.52915471 0 0 0 0.02015,-0.0067 0.52915471,0.52915471 0 0 0 0.0098,-0.0036 0.52915471,0.52915471 0 0 0 0.01964,-0.0078 0.52915471,0.52915471 0 0 0 0.0088,-0.0041 0.52915471,0.52915471 0 0 0 5.17e-4,0 0.52915471,0.52915471 0 0 0 5.16e-4,-5.17e-4 0.52915471,0.52915471 0 0 0 0.0279,-0.01292 0.52915471,0.52915471 0 0 0 0.0186,-0.01033 0.52915471,0.52915471 0 0 0 0.0093,-0.0052 0.52915471,0.52915471 0 0 0 0.01757,-0.01085 0.52915471,0.52915471 0 0 0 0.0026,-0.0015 0.52915471,0.52915471 0 0 0 0.01964,-0.01395 0.52915471,0.52915471 0 0 0 0.0036,-0.0026 0.52915471,0.52915471 0 0 0 0.0083,-0.0062 0.52915471,0.52915471 0 0 0 0.01654,-0.01344 0.52915471,0.52915471 0 0 0 0.02377,-0.02067 0.52915471,0.52915471 0 0 0 0.0072,-0.0067 0.52915471,0.52915471 0 0 0 0.02222,-0.02274 l 3.246767,-3.204393 a 0.52915471,0.52915471 0 0 0 0.0041,-0.7482601 0.52915471,0.52915471 0 0 0 -0.386532,-0.158127 0.52915471,0.52915471 0 0 0 -0.361728,0.1524425 L 13.738428,11.457992 V 5.7964324 A 0.52915471,0.52915471 0 0 0 13.208755,5.267276 Z m -9.5661543,11.13657 c -0.8401752,0 -1.5254581,0.685284 -1.5254585,1.52546 v 4.886427 c -2e-7,0.840176 0.6852828,1.525459 1.5254585,1.525459 H 22.815734 c 0.840176,0 1.525458,-0.685282 1.525458,-1.525459 v -4.886427 c -1e-6,-0.840176 -0.685283,-1.52546 -1.525458,-1.52546 z" />
</svg>
