<?xml version="1.0" encoding="UTF-8" standalone="no"?>
<svg
   xmlns="http://www.w3.org/2000/svg"
   version="1.1"
   viewBox="0 0 26.458333 26.458334"
   height="100"
   width="100">
  <path
     d="M 3.0509171,0 C 1.3705006,0 2.5404723e-8,1.3705006 0,3.0509171 V 23.405867 c 1.9053541e-7,1.680416 1.3705007,3.052466 3.0509171,3.052466 H 23.405867 c 1.680416,0 3.052466,-1.37205 3.052466,-3.052466 V 3.0509171 C 26.458333,1.3705007 25.086283,1.9053542e-7 23.405867,0 Z m 0,0.81078741 H 23.405867 c 1.242033,1.5e-7 2.24013,0.99809669 2.24013,2.24012969 V 23.405867 c 0,1.242033 -0.998097,2.240129 -2.24013,2.240129 H 3.0509171 c -1.242033,0 -2.24012953,-0.998096 -2.24012969,-2.240129 V 3.0509171 C 0.81078744,1.808884 1.808884,0.81078741 3.0509171,0.81078741 Z M 3.6426007,2.1171422 c -0.8401757,0 -1.5254585,0.6852828 -1.5254585,1.5254584 V 22.815733 c 4e-7,0.840176 0.6852831,1.525459 1.5254585,1.525459 h 4.8864282 c 0.8401754,0 1.5254571,-0.685283 1.5254581,-1.525459 V 3.6426006 c 0,-0.8401756 -0.6852825,-1.5254584 -1.5254581,-1.5254584 z M 17.015167,9.4529855 a 0.52917969,0.52917969 0 0 0 -0.363278,0.1539927 l -3.263303,3.2224798 a 0.52917969,0.52917969 0 0 0 -10e-4,10e-4 l -0.001,10e-4 a 0.52917969,0.52917969 0 0 0 -0.0016,0.0016 0.52917969,0.52917969 0 0 0 -0.0186,0.01912 0.52917969,0.52917969 0 0 0 -0.0016,0.0021 0.52917969,0.52917969 0 0 0 -0.01912,0.02222 0.52917969,0.52917969 0 0 0 -0.0016,0.0021 0.52917969,0.52917969 0 0 0 -0.03514,0.04909 0.52917969,0.52917969 0 0 0 -10e-4,0.0021 0.52917969,0.52917969 0 0 0 -0.02894,0.05271 0.52917969,0.52917969 0 0 0 -10e-4,0.0026 0.52917969,0.52917969 0 0 0 -0.03152,0.0863 0.52917969,0.52917969 0 0 0 -5.29e-4,0.0026 0.52917969,0.52917969 0 0 0 -0.01757,0.134873 0.52917969,0.52917969 0 0 0 5.3e-4,0.01602 0.52917969,0.52917969 0 0 0 5.29e-4,0.0078 0.52917969,0.52917969 0 0 0 0.0057,0.05943 0.52917969,0.52917969 0 0 0 0,10e-4 0.52917969,0.52917969 0 0 0 0.0062,0.02997 0.52917969,0.52917969 0 0 0 0.0078,0.03049 0.52917969,0.52917969 0 0 0 0.0093,0.02997 0.52917969,0.52917969 0 0 0 0.02429,0.05839 0.52917969,0.52917969 0 0 0 0.0124,0.02377 0.52917969,0.52917969 0 0 0 0.0047,0.0083 0.52917969,0.52917969 0 0 0 0.0026,0.0047 0.52917969,0.52917969 0 0 0 0.01137,0.01809 0.52917969,0.52917969 0 0 0 0.01809,0.02584 0.52917969,0.52917969 0 0 0 0.01912,0.0248 0.52917969,0.52917969 0 0 0 0.02067,0.02326 0.52917969,0.52917969 0 0 0 0.0083,0.0088 0.52917969,0.52917969 0 0 0 5.29e-4,5.29e-4 l 3.226613,3.267438 a 0.52917969,0.52917969 0 0 0 0.748261,0.0041 0.52917969,0.52917969 0 0 0 0.0057,-0.748261 l -2.33728,-2.365184 h 5.659493 a 0.52917969,0.52917969 0 0 0 0.529156,-0.529156 0.52917969,0.52917969 0 0 0 -0.529156,-0.529156 H 15.04807 l 2.348131,-2.320227 a 0.52917969,0.52917969 0 0 0 0.0041,-0.7482599 0.52917969,0.52917969 0 0 0 -0.384981,-0.1581267 z" />
</svg>
