<?xml version="1.0" encoding="UTF-8" standalone="no"?>
<svg
   xmlns="http://www.w3.org/2000/svg"
   version="1.1"
   viewBox="0 0 26.458333 26.458334"
   height="100"
   width="100">
  <path
     d="M 26.458333,3.0507062 C 26.458333,1.3702983 25.086082,1.9053445e-7 23.405675,0 H 3.0507062 C 1.3702981,-3.1755744e-8 -3.1755745e-8,1.3702981 0,3.0507062 V 23.405675 c -4.445805e-7,1.680408 1.3702978,3.052658 3.0507062,3.052658 H 23.405675 c 1.680408,0 3.052659,-1.37225 3.052658,-3.052658 z m -0.81248,0 V 23.405675 c 1e-6,1.242026 -0.998152,2.240178 -2.240178,2.240178 H 3.0507062 c -1.2420271,0 -2.24017958,-0.998151 -2.24017925,-2.240178 V 3.0507062 C 0.81052692,1.8086794 1.8086794,0.81052692 3.0507062,0.81052695 H 23.405675 c 1.242026,1.4e-7 2.240178,0.99815255 2.240178,2.24017925 z"
   />
</svg>
