<?xml version="1.0" encoding="UTF-8" standalone="no"?>
<svg
   xmlns="http://www.w3.org/2000/svg"
   width="100"
   height="100"
   viewBox="0 0 100 100"
   version="1.1">
  <path
     d="M 11.5308,0 C 5.1797429,-1.2001958e-7 0,5.1797429 0,11.5308 V 88.461388 C 7.2011979e-7,94.812445 5.1797437,100 11.5308,100 H 88.461388 C 94.812447,100 100,94.812445 100,88.461388 V 11.5308 C 100,5.1797418 94.812447,-1.6802795e-6 88.461388,0 Z m 0,3.0623803 h 76.930588 c 4.694209,-1.1e-6 8.464514,3.7742122 8.464514,8.4684197 v 76.930588 c 0,4.694203 -3.770309,8.464518 -8.464514,8.464514 H 11.5308 c -4.6942065,0 -8.4684191,-3.770311 -8.4684197,-8.464514 V 11.5308 c 0,-4.6942067 3.7742128,-8.4684199 8.4684197,-8.4684197 z m 2.234287,4.9373072 c -3.175405,0 -5.7653995,2.5899945 -5.7653995,5.7653995 v 18.46803 c 0,3.175404 2.5899945,5.765401 5.7653995,5.765401 h 72.46592 c 3.175404,-4e-6 5.765399,-2.589999 5.765399,-5.765401 v -18.46803 c 0,-3.175404 -2.589995,-5.765398 -5.765399,-5.7653995 z M 50.037108,49.994141 a 1.9999156,1.9999156 0 0 0 -0.08593,0.0038 1.9999156,1.9999156 0 0 0 -0.09375,0.0079 1.9999156,1.9999156 0 0 0 -0.01952,0.0038 1.9999156,1.9999156 0 0 0 -0.03515,0.0038 1.9999156,1.9999156 0 0 0 -1.136676,0.558571 l -12.343268,12.19093 a 1.9999156,1.9999156 0 0 0 -0.01568,2.828015 1.9999156,1.9999156 0 0 0 2.828014,0.0155 l 8.941057,-8.827786 v 21.389792 a 1.9999156,1.9999156 0 0 0 1.999922,1.99992 1.9999156,1.9999156 0 0 0 1.999921,-1.99992 V 56.872388 l 8.761378,8.874653 a 1.9999156,1.9999156 0 0 0 2.835827,0.0155 1.9999156,1.9999156 0 0 0 0.01569,-2.828013 L 51.603467,50.704535 a 1.9999156,1.9999156 0 0 0 -1.14058,-0.671852 1.9999156,1.9999156 0 0 0 -0.234366,-0.03137 1.9999156,1.9999156 0 0 0 -0.101556,-0.0079 1.9999156,1.9999156 0 0 0 -0.01952,0 1.9999156,1.9999156 0 0 0 -0.03126,0 1.9999156,1.9999156 0 0 0 -0.03906,0 z" />
</svg>
