<?xml version="1.0" encoding="UTF-8" standalone="no"?>
<svg
   xmlns="http://www.w3.org/2000/svg"
   version="1.1"
   viewBox="0 0 26.458333 26.458334"
   height="100"
   width="100">
  <path
     d="M 3.0509171,0 C 1.3705005,-3.1755905e-8 -3.1755906e-8,1.3705005 0,3.0509171 V 23.405867 c -4.4458277e-7,1.680417 1.3705002,3.052466 3.0509171,3.052466 H 23.405867 c 1.680417,0 3.052469,-1.372049 3.052466,-3.052466 V 3.0509171 C 26.458333,1.3705007 25.086283,1.9053542e-7 23.405867,0 Z m 0,0.81078741 H 23.405867 c 1.242033,1.5e-7 2.24013,0.99809669 2.24013,2.24012969 V 23.405867 c 10e-7,1.242033 -0.998097,2.240129 -2.24013,2.240129 H 3.0509171 c -1.2420334,0 -2.24013001,-0.998095 -2.24012969,-2.240129 V 3.0509171 C 0.81078738,1.808884 1.808884,0.81078738 3.0509171,0.81078741 Z M 3.7800572,2.4571664 A 1.3228909,1.3228909 0 0 0 2.4571665,3.7800573 V 22.67776 a 1.3228909,1.3228909 0 0 0 1.3228907,1.322891 H 22.67776 A 1.3228909,1.3228909 0 0 0 24.000651,22.67776 V 3.7800573 A 1.3228909,1.3228909 0 0 0 22.67776,2.4571664 Z M 13.23821,3.1739047 a 0.52748475,0.52748474 0 0 1 0.01757,0 0.52748475,0.52748474 0 0 1 0.0036,0 0.52748475,0.52748474 0 0 1 0.01085,5.292e-4 0.52748475,0.52748474 0 0 1 0.02015,0.00103 0.52748475,0.52748474 0 0 1 0.0021,0 0.52748475,0.52748474 0 0 1 0.03152,0.00362 0.52748475,0.52748474 0 0 1 0.02532,0.00414 0.52748475,0.52748474 0 0 1 0.0057,0.00103 0.52748475,0.52748474 0 0 1 0.0248,0.00569 0.52748475,0.52748474 0 0 1 0.0057,0.00156 0.52748475,0.52748474 0 0 1 0.0031,0.00103 0.52748475,0.52748474 0 0 1 0.02687,0.00827 0.52748475,0.52748474 0 0 1 0.02429,0.00827 0.52748475,0.52748474 0 0 1 0.0052,0.00206 0.52748475,0.52748474 0 0 1 0.02377,0.010335 0.52748475,0.52748474 0 0 1 0.0052,0.00259 0.52748475,0.52748474 0 0 1 0.05529,0.029971 0.52748475,0.52748474 0 0 1 0.02119,0.013951 0.52748475,0.52748474 0 0 1 0.0047,0.0031 0.52748475,0.52748474 0 0 1 0.02067,0.015502 0.52748475,0.52748474 0 0 1 0.0047,0.00362 0.52748475,0.52748474 0 0 1 0.01964,0.016536 0.52748475,0.52748474 0 0 1 0.0041,0.00362 0.52748475,0.52748474 0 0 1 0.0052,0.00517 0.52748475,0.52748474 0 0 1 0.01344,0.012401 l 0.0041,0.00465 3.22248,3.2415994 a 0.52748475,0.52748474 0 0 1 -0.0021,0.7461933 0.52748475,0.52748474 0 0 1 -0.746193,-0.00206 L 13.777188,4.979986 v 5.603683 a 0.52748475,0.52748474 0 0 1 -0.527606,0.527607 0.52748475,0.52748474 0 0 1 -0.527089,-0.527607 V 4.9582569 l -2.369319,2.3248775 a 0.52748475,0.52748474 0 0 1 -0.7461928,-0.00775 0.52748475,0.52748474 0 0 1 0.0062,-0.7461934 L 12.855296,3.349084 a 0.52748475,0.52748474 0 0 1 0.02119,-0.022737 0.52748475,0.52748474 0 0 1 0.269746,-0.1426243 0.52748475,0.52748474 0 0 1 0.03101,-0.00517 0.52748475,0.52748474 0 0 1 0.0078,-0.00103 0.52748475,0.52748474 0 0 0 5.29e-4,0 0.52748475,0.52748474 0 0 1 0.0057,-5.291e-4 0.52748475,0.52748474 0 0 1 0.0155,-0.00156 0.52748475,0.52748474 0 0 1 0.01085,-5.291e-4 0.52748475,0.52748474 0 0 1 0.02067,-0.00103 z M 6.9353589,9.4550525 a 0.52748475,0.52748474 0 0 1 0.3849819,0.1560598 0.52748475,0.52748474 0 0 1 -0.00206,0.7461927 L 4.980481,12.681149 h 5.603166 a 0.52748475,0.52748474 0 0 1 0.527606,0.527607 0.52748475,0.52748474 0 0 1 -0.527606,0.527088 H 4.9577402 l 2.3253943,2.369319 a 0.52748475,0.52748474 0 0 1 -0.00775,0.746193 0.52748475,0.52748474 0 0 1 -0.7461933,-0.0078 l -3.202844,-3.263771 a 0.52748475,0.52748474 0 0 1 -0.010334,-0.01085 0.52748475,0.52748474 0 0 1 -0.012919,-0.01447 0.52748475,0.52748474 0 0 1 -0.00827,-0.0088 0.52748475,0.52748474 0 0 1 -0.011885,-0.0155 0.52748475,0.52748474 0 0 1 -0.00723,-0.0093 0.52748475,0.52748474 0 0 1 -0.034106,-0.05271 0.52748475,0.52748474 0 0 1 -0.013435,-0.02532 0.52748475,0.52748474 0 0 1 -0.00103,-0.0026 0.52748475,0.52748474 0 0 1 0.100767,-0.60667 L 6.5741512,9.6090359 A 0.52748475,0.52748474 0 0 1 6.9353626,9.4550432 Z m 12.6072531,0 a 0.52748475,0.52748474 0 0 1 0.384982,0.1581267 L 23.1077,12.855296 a 0.52748475,0.52748474 0 0 1 0.02274,0.0217 0.52748475,0.52748474 0 0 1 0.151409,0.341574 0.52748475,0.52748474 0 0 1 10e-4,0.02377 0.52748475,0.52748474 0 0 1 0,0.0072 0.52748475,0.52748474 0 0 1 0,0.0021 0.52748475,0.52748474 0 0 1 -0.0021,0.04082 0.52748475,0.52748474 0 0 1 -0.0026,0.02687 0.52748475,0.52748474 0 0 1 -5.29e-4,0.0047 0.52748475,0.52748474 0 0 1 -0.0047,0.02635 0.52748475,0.52748474 0 0 1 -10e-4,0.0047 0.52748475,0.52748474 0 0 1 -0.0062,0.02584 0.52748475,0.52748474 0 0 1 -0.001,0.0047 0.52748475,0.52748474 0 0 1 -0.0078,0.02532 0.52748475,0.52748474 0 0 1 -0.01033,0.02946 0.52748475,0.52748474 0 0 1 -0.145725,0.207736 l -5.29e-4,5.29e-4 -3.218346,3.200776 a 0.52748475,0.52748474 0 0 1 -0.745676,-0.0021 0.52748475,0.52748474 0 0 1 0.0021,-0.746193 l 2.337796,-2.323844 h -5.60365 a 0.52748475,0.52748474 0 0 1 -0.52709,-0.527618 0.52748475,0.52748474 0 0 1 0.52709,-0.527089 h 5.625903 L 19.17365,10.353171 a 0.52748475,0.52748474 0 0 1 0.0078,-0.7461928 0.52748475,0.52748474 0 0 1 0.361211,-0.1519257 z m -6.293033,5.8884145 a 0.52748475,0.52748474 0 0 1 0.527606,0.52709 v 5.603683 l 2.323844,-2.337797 a 0.52748475,0.52748474 0 0 1 0.359661,-0.154509 0.52748475,0.52748474 0 0 1 0.386532,0.152442 0.52748475,0.52748474 0 0 1 0.0021,0.746194 l -3.226611,3.245732 a 0.52748475,0.52748474 0 0 1 -0.0041,0.0041 0.52748475,0.52748474 0 0 1 -0.02325,0.02119 0.52748475,0.52748474 0 0 1 -0.02429,0.01964 0.52748475,0.52748474 0 0 1 -0.694001,-0.04289 0.52748475,0.52748474 0 0 1 -0.0217,-0.02274 L 9.6131792,19.925527 a 0.52748475,0.52748474 0 0 1 -0.0062,-0.746193 0.52748475,0.52748474 0 0 1 0.3575938,-0.158127 0.52748475,0.52748474 0 0 1 0.388599,0.150375 l 2.369319,2.324878 v -5.625903 a 0.52748475,0.52748474 0 0 1 0.527088,-0.52709 z" />
</svg>
