<?xml version="1.0" encoding="UTF-8" standalone="no"?>
<svg
   xmlns="http://www.w3.org/2000/svg"
   width="100"
   height="100"
   viewBox="0 0 26.458333 26.458334"
   version="1.1">
  <path
     d="M 3.0509171,0 C 1.3705005,-3.1755905e-8 0,1.3705005 0,3.0509171 V 23.405867 c -4.4458277e-7,1.680417 1.3705002,3.052466 3.0509171,3.052466 H 23.405867 c 1.680417,0 3.052469,-1.372049 3.052466,-3.052466 V 3.0509171 C 26.458333,1.3705007 25.086283,1.9053542e-7 23.405867,0 Z m 0,0.81078741 H 23.405867 c 1.242033,1.5e-7 2.24013,0.99809669 2.24013,2.24012969 V 23.405867 c 10e-7,1.242033 -0.998097,2.240129 -2.24013,2.240129 H 3.0509171 c -1.2420334,0 -2.24013001,-0.998095 -2.24012969,-2.240129 V 3.0509171 c 0,-1.2420331 0.99809659,-2.24012972 2.24012969,-2.24012969 z M 17.929305,2.1171422 c -0.840176,-2e-7 -1.525458,0.6852828 -1.525458,1.5254584 V 22.815733 c 0,0.840177 0.685282,1.525459 1.525458,1.525459 h 4.886429 c 0.840175,-1e-6 1.525458,-0.685283 1.525458,-1.525459 V 3.6426006 c 0,-0.8401753 -0.685283,-1.525458 -1.525458,-1.5254584 z M 9.4881247,9.4529855 a 0.52917969,0.52917969 0 0 0 -0.3612111,0.1539927 0.52917969,0.52917969 0 0 0 -0.0062,0.7482598 l 2.3367634,2.365184 H 5.7969491 a 0.52917969,0.52917969 0 0 0 -0.5296731,0.529157 0.52917969,0.52917969 0 0 0 0.5296731,0.529673 h 5.6367559 l -2.3481317,2.320226 a 0.52917969,0.52917969 0 0 0 -0.00568,0.747744 0.52917969,0.52917969 0 0 0 0.7498106,0.0041 L 13.07957,13.640209 a 0.52917969,0.52917969 0 0 0 0.01602,-0.0155 0.52917969,0.52917969 0 0 0 0.01809,-0.0186 0.52917969,0.52917969 0 0 0 0.0036,-0.0041 0.52917969,0.52917969 0 0 0 5.3e-4,-5.29e-4 0.52917969,0.52917969 0 0 0 0.01964,-0.02377 0.52917969,0.52917969 0 0 0 0.0186,-0.0248 0.52917969,0.52917969 0 0 0 0.01757,-0.02636 0.52917969,0.52917969 0 0 0 0.01292,-0.02274 0.52917969,0.52917969 0 0 0 0.0026,-0.0047 0.52917969,0.52917969 0 0 0 0.0031,-0.0062 0.52917969,0.52917969 0 0 0 0.01085,-0.02222 0.52917969,0.52917969 0 0 0 0.0083,-0.01912 0.52917969,0.52917969 0 0 0 0.0041,-0.0093 0.52917969,0.52917969 0 0 0 0.0088,-0.0248 0.52917969,0.52917969 0 0 0 0.0093,-0.02997 0.52917969,0.52917969 0 0 0 0.01809,-0.124537 0.52917969,0.52917969 0 0 0 -0.05839,-0.255794 0.52917969,0.52917969 0 0 0 -0.09405,-0.130739 L 9.8746832,9.6110982 A 0.52917969,0.52917969 0 0 0 9.4881509,9.4529715 Z" />
</svg>
